<?xml version="1.0" encoding="UTF-8"?>
<!DOCTYPE svg PUBLIC "-//W3C//DTD SVG 1.1//EN" "http://www.w3.org/Graphics/SVG/1.1/DTD/svg11.dtd">
<svg version="1.1" xmlns="http://www.w3.org/2000/svg" xmlns:xlink="http://www.w3.org/1999/xlink" x="0" y="0" width="232" height="543" viewBox="0, 0, 232, 543">
  <g id="Layer_1">
    <path d="M181.428,329.234 C182.344,328.203 183.333,327.262 184.389,326.401 C185.443,325.54 186.562,324.755 187.753,324.061 C188.952,323.377 190.208,322.761 191.651,322.373 C190.987,323.712 190.135,324.821 189.228,325.861 C188.312,326.893 187.322,327.834 186.27,328.698 C185.217,329.562 184.099,330.347 182.907,331.041 C181.708,331.726 180.452,332.342 179.007,332.726 C179.668,331.385 180.52,330.274 181.428,329.234 M190.589,428.631 C192.477,427.945 194.399,427.353 196.359,426.863 C198.324,426.381 200.316,425.987 202.414,425.84 C200.759,427.143 198.976,428.142 197.167,429.054 C195.352,429.955 193.494,430.739 191.6,431.424 C189.705,432.108 187.774,432.693 185.801,433.161 C183.824,433.602 181.816,434.018 179.695,433.99 C181.439,432.848 183.201,431.842 185.024,430.968 C186.844,430.092 188.7,429.318 190.589,428.631 M191.299,385.731 C192.497,384.805 193.753,383.978 195.06,383.243 C196.365,382.506 197.72,381.858 199.132,381.31 C200.551,380.773 202.013,380.313 203.62,380.11 C202.617,381.383 201.469,382.398 200.276,383.336 C199.079,384.263 197.823,385.088 196.52,385.827 C195.215,386.567 193.86,387.216 192.448,387.765 C191.03,388.302 189.568,388.761 187.958,388.96 C188.959,387.685 190.107,386.668 191.299,385.731 M110.05,475.148 C109.148,473.469 108.601,471.588 108.418,469.692 C108.056,465.888 109.022,462.047 111.24,459.04 C111.286,460.927 111.181,462.669 111.164,464.384 C111.159,466.097 111.209,467.759 111.372,469.399 C111.536,471.039 111.81,472.655 112.22,474.281 C112.613,475.921 113.196,477.518 113.835,479.29 C112.235,478.304 110.947,476.826 110.05,475.148 M104.829,442.116 C104.126,440.194 103.759,438.19 103.64,436.204 C103.513,434.215 103.584,432.227 103.872,430.271 C104.171,428.318 104.621,426.379 105.464,424.529 C105.843,426.518 106.035,428.438 106.198,430.348 L106.601,436.004 C106.718,437.874 106.863,439.72 107.095,441.547 C107.339,443.38 107.595,445.186 108.351,447.061 C106.597,445.948 105.537,444.001 104.829,442.116 M104.179,409.614 C103.966,409.38 103.769,409.134 103.577,408.883 C103.202,408.38 102.88,407.846 102.56,407.311 C101.959,406.226 101.423,405.109 100.978,403.958 C100.089,401.657 99.47,399.256 99.112,396.81 C98.759,394.364 98.683,391.863 98.958,389.39 C99.257,386.925 99.89,384.457 101.146,382.308 C101.095,384.784 101.122,387.115 101.292,389.448 C101.456,391.776 101.722,394.081 102.052,396.388 C102.384,398.693 102.774,400.999 103.214,403.311 C103.438,404.466 103.644,405.635 103.912,406.787 C104.023,407.374 104.175,407.945 104.314,408.525 C104.386,408.815 104.468,409.101 104.56,409.381 C104.664,409.652 104.724,409.969 104.974,410.133 C104.636,410.123 104.408,409.815 104.179,409.614 M96.462,356.975 C95.544,354.476 95.224,351.833 95.152,349.231 C95.091,346.621 95.411,344.037 95.97,341.525 C96.56,339.02 97.345,336.557 98.624,334.293 C98.541,336.875 98.384,339.365 98.273,341.842 C98.162,344.312 98.058,346.76 98.12,349.182 C98.193,351.598 98.287,354.012 98.718,356.372 C99.136,358.739 99.802,361.036 100.859,363.415 C98.811,361.81 97.382,359.45 96.462,356.975 M123.209,320.167 L113.423,321.1 C110.466,321.399 108.04,321.679 106.448,321.938 C96.984,323.484 84.267,340.276 83.034,341.932 C83.095,342.011 83.155,342.082 83.216,342.164 L82.273,342.749 C85.403,352.723 87.087,362.997 87.239,372.533 C95.421,370.648 101.273,369.734 104.751,369.795 C104.784,369.746 104.808,369.693 104.847,369.649 C104.937,369.545 105.035,369.457 105.134,369.387 L105.209,369.338 C105.291,369.29 105.377,369.245 105.464,369.206 C105.604,369.145 105.646,369.138 105.743,369.103 C105.892,369.059 106.011,369.027 106.127,368.999 L106.773,368.862 L107.99,368.653 L110.376,368.309 L115.118,367.708 L124.589,366.634 L143.53,364.657 C156.158,363.38 168.792,362.167 181.426,360.972 C177.363,361.517 173.302,362.068 169.24,362.618 L180.955,367.403 L164.336,363.281 C157.457,364.219 150.581,365.164 143.707,366.13 L124.873,368.843 L115.478,370.282 L110.804,371.06 L108.493,371.486 L107.374,371.724 L107.002,371.817 L106.048,372.667 C106.151,372.783 106.24,372.823 106.241,372.823 C104.712,372.145 95.453,373.688 87.232,375.584 C87.148,379.953 86.739,384.142 85.974,388.03 C85.347,391.212 83.984,394.321 82.078,397.12 L82.087,397.124 C81.988,397.329 79.722,402.24 83.185,407.976 L106.251,415.631 C106.519,415.61 106.777,415.607 107.044,415.625 L108.249,415.587 C109.054,415.56 109.856,415.539 110.673,415.491 L115.56,415.23 L125.349,414.624 L144.933,413.283 L184.095,410.411 L167.885,412.219 L174.11,414.962 L177.545,416.896 C178.693,417.533 179.831,418.193 180.998,418.792 C179.735,418.421 178.493,417.986 177.244,417.575 L173.504,416.317 L163.674,412.687 L145.066,414.762 L125.536,416.844 L115.759,417.821 L110.854,418.269 C110.041,418.348 109.209,418.402 108.38,418.46 L107.134,418.547 C106.587,418.554 106.03,418.538 105.483,418.503 L105.863,417.064 L105.394,418.476 L82.984,411.038 C79.593,417.437 81.829,427.281 89.117,437.713 L110.927,451.335 C122.125,452.321 133.315,453.349 144.503,454.438 C150.161,454.99 155.818,455.561 161.47,456.174 C164.297,456.482 167.122,456.801 169.943,457.15 C171.354,457.323 172.765,457.508 174.172,457.712 C175.571,457.944 177.002,458.079 178.351,458.541 C176.988,458.139 175.555,458.066 174.149,457.895 C172.736,457.753 171.322,457.63 169.906,457.519 C168.988,457.446 168.07,457.391 167.152,457.322 C168.401,458.454 169.615,459.208 170.943,460.365 C171.678,461.003 172.421,461.631 173.194,462.22 C173.975,462.786 174.742,463.422 175.686,463.689 C174.706,463.543 173.842,462.997 172.988,462.528 C172.135,462.035 171.311,461.5 170.492,460.955 C168.864,459.864 165.865,458.304 164.281,457.118 C163.323,457.053 162.365,456.976 161.406,456.913 C155.737,456.547 150.064,456.225 144.39,455.919 C133.044,455.31 121.691,454.766 110.343,454.263 L110.438,452.781 L109.652,454.041 L88.447,440.797 C83.741,447.768 86.046,456.546 87.617,460.74 C88.987,463.139 92.003,467.289 98.283,472.033 C107.275,478.824 117.544,486.217 120.166,488.099 C137.589,489.933 182.162,493.839 191.64,491.181 C199.819,488.887 200.286,486.29 200.595,484.571 C200.683,484.078 200.78,483.535 200.99,482.989 C200.858,482.144 200.207,480.253 199.761,478.958 C198.349,474.852 197.591,472.434 198.454,470.463 C198.591,470.149 198.929,469.023 199.229,468.03 C200.96,462.269 202.639,457.28 205.261,455.061 L185.48,453.767 L208.824,452.784 C211.094,451.187 214.119,448.785 216.32,446.958 C216.923,442.764 217.149,436.593 215.831,434.629 C212.646,429.88 210.501,416.797 212.007,411.297 C212.436,409.734 213.447,407.83 214.756,405.671 L190.176,406.265 L216.382,403.07 C216.675,402.61 216.976,402.143 217.281,401.666 C219.872,397.63 223.097,392.607 223.604,389.742 C224.22,386.269 218.825,375.044 210.776,363.051 C206.928,357.317 207.347,352.613 208.418,349.498 L204.308,349.791 L195.836,350.38 C193.014,350.583 190.192,350.793 187.375,351.035 C185.966,351.157 184.559,351.286 183.153,351.439 C182.451,351.518 181.749,351.6 181.051,351.7 C180.363,351.826 179.628,351.854 179.005,352.185 C179.605,351.796 180.338,351.704 181.016,351.518 C181.706,351.355 182.401,351.213 183.097,351.072 C184.487,350.796 185.883,350.544 187.278,350.3 C190.071,349.81 192.867,349.354 195.665,348.906 L204.057,347.578 L208.244,346.909 L209.725,346.661 C209.845,346.452 209.96,346.259 210.057,346.099 C210.32,345.662 210.588,345.227 210.854,344.794 C212.586,341.983 214.22,339.328 213.899,337.17 C213.256,332.841 211.205,325.963 210.077,324.226 C209.317,323.943 207.932,323.373 204.967,322.143 C196.247,318.522 177.11,310.58 168.047,308.766 C167.959,310.113 167.87,311.472 167.781,312.848 C164.878,316.285 147.322,317.935 123.209,320.167" fill="#E5BD95"/>
    <path d="M71.764,402.793 C77.52,399.485 81.849,393.608 83.06,387.458 C85.569,374.711 83.124,355.807 78.233,340.416 L77.292,339.442 C75.952,338.13 74.425,337.001 72.762,336.092 C71.104,335.176 69.3,334.473 67.405,334.103 C65.519,333.649 63.558,333.624 61.591,333.675 C63.526,333.378 65.519,333.149 67.514,333.369 C68.52,333.408 69.499,333.637 70.495,333.822 C71.463,334.097 72.461,334.336 73.391,334.748 C75.286,335.491 77.095,336.502 78.737,337.746 L79.942,338.715 C80.202,338.953 80.463,339.191 80.722,339.43 C80.88,338.788 81.001,338.112 81.065,337.462 C81.178,336.3 81.131,335.122 80.872,333.977 C80.637,332.823 80.097,331.745 79.36,330.787 C78.646,329.789 77.606,329.071 76.536,328.392 C77.706,328.845 78.925,329.366 79.896,330.274 C80.888,331.136 81.745,332.238 82.276,333.493 C82.754,334.564 83.053,335.713 83.216,336.879 C87.86,331.189 97.657,320.365 105.97,319.008 C107.28,318.794 109.112,318.57 111.313,318.334 C109.118,310.496 106.952,302.784 104.843,295.291 C102.54,294.367 100.286,293.537 99.224,293.403 C98.711,293.338 98.208,293.273 97.645,293.163 C91.083,291.871 74.28,296.064 67.173,298.297 C63.282,299.519 54.806,308.311 48.616,314.73 C45.597,317.863 42.837,320.726 40.552,322.835 C42.456,322.683 44.36,322.57 46.263,322.519 C48.645,322.456 51.026,322.463 53.405,322.576 C54.595,322.636 55.784,322.723 56.966,322.879 C57.556,322.965 58.146,323.049 58.727,323.194 C59.292,323.348 59.913,323.492 60.34,323.918 C59.874,323.543 59.263,323.47 58.692,323.377 C58.112,323.294 57.521,323.271 56.936,323.249 C55.76,323.218 54.583,323.254 53.407,323.318 C51.056,323.453 48.711,323.691 46.379,324 C44.048,324.307 41.726,324.685 39.436,325.149 C38.639,325.316 37.835,325.497 37.038,325.689 C33.378,328.023 30.325,331.219 31.618,338.2 C33.021,338.286 34.471,338.294 35.899,338.274 C38.286,338.224 40.686,338.08 43.083,337.868 C45.478,337.652 47.872,337.378 50.251,337.001 C51.44,336.81 52.626,336.597 53.798,336.327 C54.385,336.192 54.967,336.041 55.538,335.854 C56.089,335.652 56.72,335.494 57.083,335.001 C56.767,335.537 56.138,335.768 55.604,336.028 C55.048,336.275 54.476,336.488 53.901,336.684 C52.749,337.076 51.579,337.413 50.405,337.726 C48.055,338.351 45.68,338.874 43.29,339.338 C40.899,339.799 38.493,340.194 36.059,340.496 C34.796,340.639 33.54,340.775 32.258,340.851 C32.435,341.438 32.637,342.049 32.868,342.684 C34.639,347.542 37.333,352.485 39.94,357.266 C42.542,362.041 44.848,366.296 46.077,370.087 C46.245,369.978 46.413,369.865 46.585,369.773 C48.755,368.659 50.942,368.379 53.101,368.188 C55.264,368.039 57.411,368.14 59.546,368.412 C61.68,368.695 63.803,369.13 65.907,369.984 C66.944,370.437 68.024,370.977 68.981,371.926 C69.784,372.77 70.491,373.652 71.077,374.587 C72.272,376.444 73.206,378.427 73.858,380.512 C74.514,382.592 74.905,384.774 74.895,386.992 C74.905,389.203 74.487,391.447 73.583,393.501 C72.702,395.577 71.202,397.318 69.573,398.751 C67.917,400.146 65.991,401.255 63.924,401.91 C61.851,402.548 59.653,402.718 57.553,402.398 C56.505,402.23 55.477,401.968 54.499,401.578 C54.469,401.565 54.438,401.55 54.407,401.537 C54.417,401.555 54.428,401.576 54.438,401.594 C55.401,403.263 55.788,403.541 56.825,404.283 C57.2,404.553 57.63,404.864 58.118,405.251 C62.675,406.12 67.43,405.283 71.764,402.793" fill="#E5BD95"/>
    <path d="M140.206,300.946 C135.869,300.051 132.8,299.288 130.646,298.678 C132.354,304.35 134.093,310.12 135.851,315.967 C137.056,315.842 138.271,315.715 139.488,315.583 C139.741,310.512 139.979,305.632 140.206,300.946" fill="#E5BD95"/>
    <path d="M86.231,438.769 C78.418,427.31 76.36,416.688 80.515,409.326 C78.841,406.48 78.323,403.793 78.3,401.567 C76.769,403.026 75.073,404.316 73.243,405.368 C69.555,407.487 65.588,408.562 61.638,408.562 C61.628,408.562 61.618,408.561 61.608,408.561 C61.847,408.821 62.086,409.082 62.345,409.374 L62.584,409.684 C65.243,413.646 64.612,417.074 64.001,420.39 C63.153,424.995 62.19,430.215 69.067,440.819 C74.685,449.48 80.293,453.782 83.082,455.557 C82.192,450.552 82.319,444.252 86.231,438.769" fill="#E5BD95"/>
    <path d="M171.093,518.337 C173.145,525.655 174.93,532.024 175.64,533.427 C178.998,534.926 186.063,535.518 190.151,533.056 C192.282,531.771 193.35,529.871 193.416,527.245 C193.44,525.857 190.814,513.849 186.412,497.917 L185.161,497.869 L165.002,497.105 C167.401,505.179 169.435,512.424 171.093,518.337" fill="#B89367"/>
    <path d="M60.89,138.495 C59.452,138.68 58.024,138.769 56.612,138.769 C40.034,138.769 25.598,126.418 23.436,109.548 C22.299,100.68 24.684,91.9 30.151,84.826 C35.618,77.752 43.514,73.23 52.382,72.094 C61.247,70.958 70.03,73.343 77.104,78.81 C84.179,84.277 88.7,92.172 89.837,101.04 C92.182,119.348 79.196,136.148 60.89,138.495 M122.762,317.227 L132.841,316.268 C127.251,297.685 121.858,279.811 117.03,263.817 C105.854,226.779 97.778,200.018 97.184,197.309 L97.184,197.307 C90.437,166.541 94.214,155.148 98.993,140.723 C101.69,132.59 104.745,123.37 106.163,108.935 C108.675,83.338 98.43,68.074 90.198,55.809 C85.94,49.467 82.265,43.991 81.27,38.341 C77.981,19.662 73.94,14.439 72.262,14.288 C72.243,14.287 72.225,14.286 72.206,14.286 C71.542,14.286 70.42,15.3 69.349,18.195 L68.631,20.144 C63.401,34.366 63.02,34.589 43.012,46.276 C39.071,48.577 34.17,51.441 28.331,54.939 C11.483,65.034 6.513,79.646 5.309,90.127 C3.327,107.374 10.102,127.309 21.784,138.605 C28.663,145.258 35.745,149.801 42.594,154.193 C57.798,163.945 72.159,173.157 81.487,203.094 C84.53,212.851 98.718,262.319 114.31,318.026 C116.843,317.775 119.694,317.511 122.722,317.231 C122.735,317.229 122.747,317.228 122.762,317.227" fill="#B89367"/>
    <path d="M51.895,399.907 C51.796,399.794 51.708,399.674 51.614,399.557 C51.708,399.689 51.803,399.808 51.895,399.907" fill="#F3DDC6"/>
    <path d="M53.183,400.695 C53.656,400.885 54.145,401.033 54.638,401.154 C55.62,401.41 56.628,401.546 57.63,401.584 C59.636,401.646 61.628,401.312 63.435,400.545 C65.244,399.795 66.888,398.685 68.281,397.308 C69.618,395.907 70.82,394.409 71.452,392.613 C72.735,389.069 72.517,385.036 71.194,381.385 C70.552,379.558 69.722,377.775 68.658,376.184 C68.142,375.374 67.535,374.654 66.916,374.009 C66.403,373.497 65.61,373.074 64.761,372.722 C63.81,372.324 62.785,372.018 61.729,371.77 C61.688,372.512 61.397,373.242 61.074,373.898 C60.872,374.314 60.601,374.679 60.36,375.077 C60.078,375.438 59.788,375.801 59.472,376.14 C58.205,377.493 56.517,378.527 54.64,378.984 C52.765,379.475 50.747,379.244 49.035,378.554 C48.151,378.239 47.351,377.782 46.624,377.238 C47.11,380.871 47.733,384.53 48.454,388.151 C48.841,390.167 49.278,392.175 49.786,394.161 C50.031,395.157 50.31,396.145 50.638,397.113 C50.794,397.602 50.954,398.091 51.168,398.553 C51.341,399.038 51.627,399.476 51.895,399.907 C52.2,400.319 52.729,400.486 53.183,400.695" fill="#F3DDC6"/>
    <path d="M52.044,400.114 C51.988,400.049 51.927,399.989 51.895,399.907 C51.902,399.958 51.956,400.029 52.044,400.114" fill="#F3DDC6"/>
    <path d="M49.513,376.889 C51.087,377.163 52.64,377.215 54.117,376.82 C55.597,376.458 57.001,375.762 58.32,374.838 C58.964,374.361 59.608,373.851 60.186,373.259 C60.669,372.792 61.123,372.302 61.479,371.715 C60.716,371.544 59.938,371.397 59.158,371.287 C57.206,371.007 55.216,370.92 53.261,370.995 C51.33,371.082 49.324,371.338 47.785,372.081 C47.025,372.453 46.485,372.944 46.362,373.438 C46.302,373.566 46.32,373.693 46.29,373.867 L46.315,374.548 C46.365,375.043 46.394,375.53 46.462,376.036 C46.462,376.044 46.464,376.053 46.464,376.061 C46.683,376.142 46.903,376.218 47.128,376.281 C47.937,376.517 48.714,376.782 49.513,376.889" fill="#F3DDC6"/>
    <path d="M207.381,57.638 C205.231,49.367 202.144,41.258 197.474,34.111 C195.106,30.578 192.305,27.307 188.952,24.73 C187.262,23.46 185.434,22.399 183.509,21.562 C181.556,20.791 179.515,20.284 177.435,20.073 C175.349,19.933 173.257,20.092 171.213,20.522 C169.184,21.024 167.216,21.761 165.351,22.722 C161.639,24.687 158.355,27.419 155.452,30.482 C149.68,36.69 145.356,44.136 141.808,51.844 C134.785,67.366 130.996,84.245 129.442,101.201 C127.862,118.152 128.508,135.441 132.573,151.986 C134.646,160.215 137.542,168.324 142.081,175.483 C144.377,179.025 147.106,182.313 150.396,184.925 C152.054,186.211 153.854,187.295 155.759,188.158 C157.689,188.955 159.718,189.494 161.796,189.738 C163.88,189.91 165.979,189.785 168.041,189.384 C170.087,188.912 172.079,188.203 173.972,187.264 C177.74,185.343 181.093,182.639 184.065,179.598 C189.963,173.425 194.483,166.017 198.105,158.277 C205.265,142.693 209.179,125.748 210.835,108.703 C212.322,91.641 211.572,74.267 207.381,57.638" fill="#B89367"/>
    <path d="M140.876,176.27 C136.115,168.979 133.004,160.776 130.83,152.427 C126.603,135.644 125.854,118.168 127.349,101.006 C129.008,83.859 132.944,66.816 140.168,51.088 C143.824,43.272 148.39,35.778 154.402,29.479 C157.437,26.376 160.872,23.597 164.779,21.603 C166.743,20.628 168.821,19.886 170.965,19.393 C173.126,18.97 175.338,18.835 177.532,19.019 C179.72,19.272 181.856,19.839 183.882,20.678 C185.879,21.581 187.757,22.712 189.478,24.047 C192.892,26.754 195.688,30.133 198.031,33.748 C202.662,41.052 205.582,49.254 207.679,57.562 C211.78,74.26 212.424,91.649 210.835,108.703 C209.279,125.759 205.468,142.737 198.383,158.403 C194.799,166.187 190.431,173.719 184.543,180.053 C181.577,183.178 178.211,185.986 174.36,188.023 C172.425,189.02 170.372,189.791 168.244,190.312 C166.1,190.767 163.897,190.933 161.699,190.783 C159.509,190.561 157.359,190.025 155.313,189.215 C153.295,188.338 151.389,187.227 149.638,185.91 C146.161,183.237 143.292,179.877 140.876,176.27 M172.126,221.559 C173.457,211.926 179.984,203.187 188.248,192.123 C201.602,174.244 218.222,151.994 223.021,113.158 C227.212,79.223 217.215,38.228 199.765,17.803 C192.997,9.88 185.758,5.735 178.25,5.48 C177.981,5.472 177.708,5.468 177.438,5.468 C148.101,5.468 115.543,58.968 113.767,110.563 C112.502,147.289 124.353,169.176 133.874,186.763 C139.944,197.976 145.187,207.658 145.87,218.601 C146.396,227.022 145.245,259.721 142.452,315.779 L164.828,312.511 C167.926,264.771 170.382,234.17 172.126,221.559" fill="#B89367"/>
    <path d="M130.42,531.248 C132.424,535.952 139.173,538.095 144.937,537.791 C148.713,537.587 151.67,536.316 152.218,534.68 C152.306,532.965 153.036,518.643 154.186,496.935 L132.579,494.84 C131.378,515.312 130.558,528.985 130.42,531.248" fill="#B89367"/>
    <path d="M168.244,190.312 C166.099,190.766 163.896,190.934 161.699,190.783 C159.509,190.56 157.359,190.025 155.313,189.214 C153.295,188.338 151.389,187.228 149.638,185.91 C146.161,183.236 143.291,179.876 140.876,176.271 C136.115,168.98 133.004,160.775 130.829,152.427 C126.603,135.644 125.853,118.169 127.349,101.007 C129.009,83.86 132.945,66.816 140.168,51.088 C143.824,43.273 148.39,35.779 154.402,29.48 C157.437,26.376 160.872,23.597 164.779,21.604 C166.743,20.628 168.821,19.886 170.965,19.393 C173.126,18.969 175.338,18.836 177.532,19.019 C179.72,19.272 181.856,19.839 183.882,20.678 C185.879,21.581 187.757,22.712 189.478,24.047 C192.892,26.755 195.688,30.132 198.031,33.747 C202.662,41.051 205.582,49.254 207.679,57.563 C211.78,74.26 212.424,91.649 210.835,108.703 C212.322,91.641 211.572,74.267 207.381,57.638 C205.231,49.367 202.144,41.257 197.473,34.111 C195.106,30.578 192.305,27.307 188.952,24.73 C187.262,23.461 185.433,22.399 183.509,21.563 C181.556,20.791 179.515,20.284 177.436,20.073 C175.348,19.933 173.257,20.092 171.213,20.523 C169.183,21.024 167.216,21.76 165.351,22.722 C161.639,24.687 158.356,27.42 155.452,30.482 C149.681,36.691 145.356,44.136 141.808,51.844 C134.785,67.365 130.996,84.245 129.443,101.2 C127.863,118.152 128.509,135.441 132.573,151.984 C134.646,160.215 137.541,168.324 142.081,175.484 C144.376,179.025 147.104,182.312 150.396,184.925 C152.054,186.211 153.854,187.294 155.759,188.158 C157.69,188.956 159.718,189.494 161.795,189.738 C163.879,189.911 165.979,189.786 168.04,189.384 C170.086,188.912 172.078,188.203 173.972,187.264 C177.74,185.343 181.093,182.639 184.066,179.598 C189.963,173.424 194.482,166.018 198.105,158.275 C205.265,142.693 209.179,125.749 210.835,108.703 C209.279,125.759 205.468,142.738 198.383,158.404 C194.799,166.187 190.431,173.718 184.542,180.052 C181.577,183.177 178.211,185.986 174.36,188.023 C172.425,189.021 170.371,189.79 168.244,190.312 M196.359,426.863 C198.324,426.382 200.316,425.987 202.414,425.84 C200.759,427.143 198.976,428.142 197.167,429.054 C195.352,429.955 193.494,430.739 191.599,431.424 C189.705,432.108 187.774,432.693 185.801,433.161 C183.824,433.602 181.816,434.018 179.695,433.99 C181.439,432.848 183.201,431.842 185.024,430.968 C186.844,430.092 188.7,429.318 190.589,428.632 C192.477,427.945 194.399,427.353 196.359,426.863 M98.718,356.372 C99.138,358.739 99.802,361.036 100.858,363.415 C98.811,361.81 97.381,359.451 96.462,356.975 C95.544,354.476 95.224,351.834 95.152,349.23 C95.091,346.621 95.411,344.037 95.97,341.525 C96.56,339.02 97.345,336.556 98.624,334.293 C98.541,336.875 98.384,339.366 98.272,341.842 C98.162,344.312 98.058,346.76 98.12,349.182 C98.193,351.598 98.287,354.011 98.718,356.372 M107.095,441.548 C107.338,443.381 107.597,445.186 108.351,447.061 C106.599,445.948 105.537,444.001 104.829,442.116 C104.126,440.194 103.759,438.19 103.64,436.204 C103.513,434.215 103.584,432.227 103.872,430.27 C104.171,428.318 104.621,426.379 105.463,424.529 C105.843,426.518 106.035,428.437 106.198,430.348 L106.601,436.004 C106.718,437.874 106.863,439.72 107.095,441.548 M104.974,410.133 C104.636,410.123 104.408,409.815 104.179,409.614 C103.966,409.381 103.769,409.134 103.577,408.883 C103.202,408.38 102.879,407.846 102.56,407.311 C101.959,406.226 101.422,405.109 100.978,403.958 C100.089,401.657 99.47,399.257 99.112,396.81 C98.759,394.364 98.683,391.864 98.958,389.389 C99.256,386.924 99.89,384.457 101.146,382.308 C101.095,384.785 101.122,387.115 101.292,389.449 C101.456,391.777 101.722,394.081 102.052,396.388 C102.384,398.693 102.774,400.999 103.213,403.311 C103.438,404.466 103.644,405.635 103.912,406.787 C104.022,407.374 104.175,407.945 104.313,408.525 C104.386,408.815 104.468,409.101 104.56,409.382 C104.664,409.652 104.724,409.969 104.974,410.133 M112.22,474.281 C112.613,475.921 113.196,477.518 113.835,479.29 C112.235,478.304 110.947,476.826 110.05,475.148 C109.147,473.469 108.601,471.589 108.418,469.692 C108.056,465.888 109.022,462.048 111.24,459.04 C111.286,460.927 111.181,462.669 111.164,464.384 C111.159,466.097 111.209,467.759 111.372,469.399 C111.536,471.039 111.81,472.655 112.22,474.281 M192.448,387.764 C191.03,388.302 189.568,388.761 187.958,388.96 C188.959,387.684 190.107,386.668 191.299,385.73 C192.497,384.804 193.753,383.978 195.06,383.243 C196.365,382.507 197.72,381.858 199.132,381.31 C200.551,380.773 202.013,380.312 203.62,380.111 C202.617,381.383 201.469,382.398 200.276,383.336 C199.079,384.263 197.823,385.089 196.52,385.828 C195.215,386.567 193.86,387.216 192.448,387.764 M182.907,331.041 C181.708,331.726 180.452,332.341 179.007,332.726 C179.668,331.385 180.52,330.274 181.428,329.234 C182.344,328.203 183.333,327.262 184.389,326.401 C185.443,325.54 186.562,324.755 187.753,324.061 C188.952,323.377 190.208,322.761 191.651,322.374 C190.987,323.712 190.135,324.821 189.228,325.862 C188.312,326.893 187.322,327.834 186.27,328.698 C185.217,329.562 184.098,330.347 182.907,331.041 M80.771,123.947 C75.788,130.394 68.595,134.514 60.513,135.55 C43.834,137.687 28.519,125.855 26.381,109.171 C25.345,101.09 27.519,93.089 32.501,86.642 C37.483,80.196 44.679,76.075 52.759,75.04 C54.077,74.871 55.392,74.787 56.699,74.787 C63.408,74.787 69.892,76.99 75.288,81.16 C81.735,86.142 85.854,93.336 86.892,101.417 C87.927,109.499 85.753,117.5 80.771,123.947 M77.104,78.81 C70.03,73.343 61.246,70.959 52.382,72.094 C43.513,73.23 35.619,77.752 30.151,84.826 C24.685,91.9 22.3,100.68 23.435,109.548 C25.597,126.418 40.033,138.769 56.612,138.769 C58.024,138.769 59.453,138.679 60.89,138.495 C79.197,136.148 92.183,119.348 89.836,101.041 C88.7,92.172 84.179,84.277 77.104,78.81 M216.32,446.958 C214.119,448.785 211.094,451.187 208.824,452.784 L185.48,453.767 L205.262,455.061 C202.639,457.28 200.96,462.269 199.229,468.03 C198.93,469.023 198.591,470.149 198.454,470.463 C197.591,472.434 198.348,474.852 199.762,478.958 C200.207,480.253 200.858,482.144 200.99,482.989 C200.78,483.535 200.682,484.078 200.595,484.571 C200.286,486.29 199.819,488.887 191.639,491.181 C182.162,493.84 137.589,489.933 120.166,488.099 C117.544,486.217 107.274,478.824 98.284,472.033 C92.003,467.289 88.987,463.139 87.617,460.74 C86.046,456.546 83.741,447.768 88.447,440.797 L109.652,454.041 L110.438,452.781 L110.343,454.263 C121.69,454.766 133.044,455.31 144.39,455.919 C150.063,456.225 155.737,456.548 161.406,456.913 C162.365,456.976 163.323,457.053 164.281,457.118 C165.865,458.304 168.864,459.864 170.493,460.955 C171.311,461.5 172.135,462.035 172.988,462.528 C173.842,462.997 174.706,463.543 175.686,463.689 C174.742,463.423 173.974,462.786 173.194,462.22 C172.421,461.632 171.678,461.003 170.943,460.365 C169.615,459.208 168.401,458.454 167.152,457.322 C168.07,457.391 168.988,457.446 169.906,457.519 C171.322,457.631 172.736,457.753 174.149,457.895 C175.555,458.066 176.988,458.139 178.351,458.541 C177.002,458.079 175.571,457.944 174.172,457.712 C172.765,457.508 171.354,457.323 169.943,457.15 C167.122,456.801 164.297,456.482 161.471,456.174 C155.818,455.561 150.161,454.99 144.503,454.437 C133.315,453.349 122.125,452.321 110.927,451.335 L89.118,437.714 C81.829,427.281 79.593,417.437 82.983,411.038 L105.394,418.476 L105.863,417.064 L105.483,418.503 C106.03,418.538 106.587,418.554 107.134,418.547 L108.38,418.46 C109.209,418.402 110.041,418.348 110.854,418.269 L115.759,417.821 L125.536,416.844 L145.065,414.762 L163.674,412.687 L173.504,416.317 L177.244,417.575 C178.494,417.986 179.735,418.421 180.998,418.792 C179.831,418.193 178.693,417.533 177.545,416.895 L174.11,414.962 L167.885,412.219 L184.096,410.411 L144.933,413.283 L125.349,414.624 L115.56,415.229 L110.673,415.491 C109.856,415.539 109.054,415.56 108.249,415.587 L107.044,415.625 C106.777,415.607 106.519,415.61 106.251,415.632 L83.185,407.976 C79.722,402.24 81.988,397.329 82.086,397.124 L82.078,397.12 C83.983,394.321 85.349,391.212 85.974,388.031 C86.739,384.142 87.147,379.954 87.231,375.584 C95.453,373.687 104.711,372.145 106.241,372.824 C106.24,372.824 106.151,372.783 106.048,372.667 L107.002,371.817 L107.374,371.724 L108.494,371.486 L110.804,371.059 L115.478,370.282 L124.873,368.842 L143.707,366.131 C150.581,365.164 157.457,364.218 164.336,363.281 L180.955,367.404 L169.24,362.619 C173.302,362.068 177.363,361.517 181.426,360.972 C168.792,362.167 156.158,363.38 143.53,364.657 L124.588,366.633 L115.118,367.709 L110.376,368.309 L107.991,368.654 L106.772,368.863 L106.127,368.999 C106.011,369.027 105.892,369.058 105.744,369.103 C105.646,369.138 105.604,369.145 105.464,369.206 C105.377,369.246 105.291,369.29 105.209,369.339 L105.134,369.387 C105.035,369.457 104.937,369.545 104.847,369.649 C104.808,369.693 104.784,369.747 104.751,369.795 C101.272,369.734 95.42,370.648 87.239,372.534 C87.087,362.997 85.403,352.722 82.272,342.749 L83.216,342.164 C83.155,342.082 83.095,342.01 83.035,341.932 C84.267,340.277 96.983,323.484 106.448,321.937 C108.04,321.679 110.466,321.399 113.423,321.099 L123.209,320.167 C147.322,317.935 164.878,316.285 167.781,312.848 C167.87,311.472 167.959,310.113 168.047,308.766 C177.11,310.58 196.247,318.521 204.967,322.143 C207.932,323.373 209.317,323.944 210.077,324.225 C211.205,325.964 213.256,332.841 213.899,337.17 C214.221,339.328 212.586,341.983 210.854,344.794 C210.588,345.226 210.32,345.662 210.057,346.099 C209.96,346.258 209.846,346.452 209.724,346.661 L208.244,346.909 L204.057,347.578 L195.665,348.906 C192.868,349.354 190.071,349.81 187.278,350.299 C185.883,350.544 184.487,350.796 183.097,351.072 C182.401,351.213 181.706,351.354 181.015,351.518 C180.338,351.704 179.605,351.796 179.005,352.185 C179.628,351.854 180.363,351.826 181.051,351.701 C181.749,351.599 182.451,351.518 183.153,351.439 C184.558,351.286 185.966,351.158 187.375,351.036 C190.192,350.793 193.014,350.584 195.836,350.381 L204.307,349.791 L208.418,349.499 C207.347,352.614 206.929,357.318 210.776,363.05 C218.825,375.044 224.22,386.269 223.604,389.742 C223.097,392.607 219.872,397.63 217.281,401.666 C216.976,402.143 216.675,402.61 216.382,403.07 L190.176,406.265 L214.756,405.671 C213.447,407.83 212.436,409.734 212.007,411.297 C210.501,416.798 212.646,429.881 215.831,434.629 C217.149,436.593 216.923,442.764 216.32,446.958 M193.415,527.245 C193.349,529.871 192.282,531.77 190.151,533.056 C186.064,535.518 178.997,534.926 175.64,533.427 C174.93,532.023 173.146,525.655 171.093,518.337 C169.435,512.424 167.402,505.179 165.002,497.104 L185.161,497.869 C185.579,497.851 185.982,497.829 186.381,497.806 L186.411,497.917 C190.815,513.849 193.44,525.855 193.415,527.245 M152.218,534.68 C151.669,536.316 148.713,537.587 144.937,537.791 C139.173,538.095 132.425,535.952 130.42,531.248 C130.556,528.985 131.378,515.312 132.579,494.84 L154.187,496.935 C153.036,518.643 152.306,532.965 152.218,534.68 M69.067,440.819 C62.19,430.215 63.153,424.995 64.001,420.39 C64.612,417.074 65.243,413.645 62.584,409.684 L62.345,409.374 C62.086,409.081 61.847,408.821 61.606,408.561 C61.618,408.561 61.627,408.562 61.638,408.562 C65.588,408.562 69.556,407.487 73.243,405.368 C75.073,404.316 76.769,403.026 78.3,401.567 C78.323,403.793 78.841,406.479 80.515,409.326 C76.36,416.687 78.417,427.31 86.231,438.769 C82.32,444.252 82.192,450.552 83.081,455.557 C80.292,453.782 74.683,449.479 69.067,440.819 M54.407,401.537 C54.438,401.55 54.468,401.565 54.5,401.578 C55.476,401.968 56.504,402.229 57.554,402.398 C59.653,402.718 61.851,402.548 63.925,401.91 C65.991,401.255 67.918,400.145 69.573,398.751 C71.203,397.318 72.702,395.577 73.583,393.501 C74.486,391.447 74.904,389.203 74.894,386.992 C74.904,384.774 74.515,382.592 73.858,380.512 C73.206,378.427 72.272,376.444 71.077,374.587 C70.492,373.652 69.783,372.77 68.981,371.926 C68.024,370.977 66.944,370.437 65.907,369.984 C63.802,369.13 61.681,368.695 59.545,368.412 C57.411,368.14 55.265,368.039 53.101,368.187 C50.942,368.379 48.755,368.659 46.585,369.773 C46.414,369.865 46.245,369.978 46.076,370.087 C44.849,366.296 42.542,362.041 39.938,357.266 C37.333,352.485 34.64,347.542 32.868,342.684 C32.638,342.049 32.435,341.439 32.257,340.851 C33.54,340.775 34.796,340.639 36.06,340.496 C38.493,340.194 40.899,339.799 43.289,339.338 C45.679,338.874 48.056,338.351 50.405,337.726 C51.579,337.413 52.748,337.076 53.899,336.684 C54.476,336.488 55.047,336.275 55.604,336.028 C56.138,335.768 56.767,335.537 57.082,335.001 C56.72,335.494 56.088,335.652 55.537,335.854 C54.968,336.041 54.384,336.192 53.798,336.327 C52.625,336.597 51.44,336.81 50.251,337 C47.872,337.378 45.478,337.652 43.082,337.868 C40.686,338.08 38.287,338.224 35.899,338.274 C34.472,338.294 33.022,338.286 31.619,338.2 C30.326,331.219 33.377,328.023 37.038,325.687 C37.835,325.497 38.638,325.316 39.437,325.149 C41.726,324.685 44.047,324.307 46.379,324 C48.711,323.691 51.056,323.453 53.407,323.318 C54.582,323.254 55.761,323.218 56.935,323.249 C57.52,323.271 58.111,323.294 58.692,323.377 C59.263,323.47 59.874,323.543 60.341,323.918 C59.913,323.492 59.293,323.348 58.726,323.194 C58.146,323.049 57.556,322.965 56.966,322.879 C55.783,322.723 54.595,322.636 53.405,322.576 C51.027,322.463 48.644,322.456 46.263,322.519 C44.36,322.57 42.457,322.683 40.552,322.835 C42.837,320.726 45.597,317.863 48.617,314.73 C54.806,308.311 63.281,299.519 67.172,298.297 C74.28,296.064 91.083,291.871 97.645,293.163 C98.209,293.273 98.711,293.338 99.224,293.403 C100.286,293.537 102.54,294.367 104.843,295.291 C106.952,302.784 109.118,310.496 111.312,318.334 C109.112,318.57 107.279,318.794 105.97,319.008 C97.658,320.365 87.86,331.187 83.216,336.879 C83.054,335.713 82.754,334.564 82.276,333.493 C81.745,332.238 80.888,331.136 79.896,330.274 C78.925,329.366 77.705,328.845 76.537,328.392 C77.606,329.071 78.645,329.789 79.36,330.787 C80.097,331.745 80.638,332.823 80.873,333.977 C81.132,335.122 81.179,336.3 81.065,337.462 C81,338.112 80.88,338.788 80.722,339.43 C80.462,339.191 80.202,338.953 79.942,338.715 L78.736,337.746 C77.095,336.502 75.286,335.491 73.392,334.748 C72.46,334.336 71.462,334.097 70.495,333.822 C69.499,333.637 68.52,333.408 67.515,333.369 C65.519,333.149 63.526,333.378 61.591,333.675 C63.558,333.624 65.519,333.649 67.406,334.103 C69.3,334.473 71.104,335.176 72.763,336.092 C74.425,337.001 75.953,338.13 77.292,339.442 L78.233,340.416 C83.124,355.807 85.568,374.711 83.06,387.458 C81.849,393.608 77.52,399.485 71.765,402.793 C67.431,405.283 62.675,406.12 58.118,405.251 C57.63,404.864 57.201,404.553 56.824,404.283 C55.788,403.541 55.401,403.263 54.437,401.594 C54.427,401.576 54.417,401.555 54.407,401.537 M51.895,399.907 C51.627,399.476 51.341,399.038 51.168,398.553 C50.954,398.09 50.794,397.602 50.638,397.113 C50.31,396.145 50.031,395.157 49.786,394.161 C49.278,392.175 48.841,390.167 48.454,388.151 C47.733,384.531 47.11,380.871 46.624,377.238 C47.351,377.782 48.151,378.239 49.035,378.553 C50.747,379.244 52.765,379.475 54.64,378.984 C56.517,378.527 58.205,377.493 59.472,376.14 C59.788,375.801 60.078,375.437 60.36,375.078 C60.601,374.678 60.872,374.314 61.074,373.898 C61.397,373.242 61.688,372.511 61.729,371.769 C62.785,372.018 63.81,372.325 64.761,372.722 C65.61,373.074 66.403,373.498 66.916,374.008 C67.535,374.655 68.142,375.374 68.658,376.183 C69.722,377.775 70.552,379.558 71.194,381.384 C72.517,385.036 72.735,389.069 71.452,392.613 C70.82,394.409 69.618,395.907 68.281,397.308 C66.888,398.685 65.244,399.795 63.435,400.545 C61.628,401.312 59.636,401.645 57.63,401.584 C56.628,401.546 55.62,401.41 54.638,401.154 C54.145,401.033 53.656,400.885 53.183,400.695 C52.729,400.486 52.2,400.319 51.895,399.907 C51.927,399.989 51.989,400.049 52.044,400.114 C51.955,400.029 51.902,399.958 51.895,399.907 M46.461,376.037 C46.394,375.53 46.365,375.043 46.315,374.548 L46.29,373.867 C46.32,373.693 46.302,373.566 46.362,373.437 C46.485,372.944 47.024,372.454 47.786,372.081 C49.324,371.338 51.33,371.082 53.261,370.996 C55.216,370.92 57.206,371.007 59.158,371.288 C59.938,371.396 60.716,371.544 61.479,371.715 C61.123,372.302 60.669,372.792 60.186,373.259 C59.608,373.85 58.963,374.361 58.32,374.838 C57.001,375.762 55.597,376.458 54.117,376.82 C52.64,377.215 51.086,377.163 49.513,376.889 C48.713,376.782 47.937,376.517 47.127,376.281 C46.903,376.218 46.683,376.142 46.464,376.06 C46.463,376.053 46.462,376.044 46.461,376.037 M81.488,203.093 C72.158,173.156 57.797,163.945 42.595,154.193 C35.745,149.801 28.663,145.258 21.783,138.605 C10.101,127.31 3.327,107.375 5.308,90.127 C6.513,79.646 11.483,65.034 28.331,54.939 C34.169,51.441 39.072,48.577 43.011,46.276 C63.019,34.589 63.401,34.366 68.63,20.145 L69.349,18.195 C70.419,15.3 71.542,14.286 72.206,14.286 C72.226,14.286 72.244,14.287 72.263,14.288 C73.94,14.439 77.981,19.662 81.27,38.341 C82.265,43.991 85.94,49.467 90.197,55.809 C98.431,68.074 108.675,83.338 106.162,108.935 C104.745,123.37 101.69,132.589 98.994,140.723 C94.213,155.148 90.437,166.542 97.185,197.307 L97.185,197.309 C97.778,200.018 105.854,226.779 117.031,263.816 C121.856,279.811 127.251,297.685 132.841,316.268 L122.761,317.226 C122.748,317.228 122.733,317.229 122.722,317.23 C119.694,317.511 116.843,317.775 114.31,318.026 C98.718,262.318 84.529,212.851 81.488,203.093 M140.206,300.946 C139.979,305.632 139.741,310.512 139.488,315.583 C138.271,315.715 137.056,315.842 135.851,315.966 C134.093,310.12 132.354,304.35 130.646,298.678 C132.8,299.288 135.869,300.051 140.206,300.946 M140.954,315.998 L140.954,315.998 z M145.869,218.601 C145.187,207.659 139.944,197.975 133.874,186.762 C124.353,169.175 112.502,147.288 113.767,110.563 C115.543,58.967 148.101,5.467 177.438,5.467 C177.707,5.467 177.981,5.472 178.249,5.481 C185.758,5.735 192.997,9.881 199.765,17.802 C217.215,38.229 227.212,79.222 223.02,113.156 C218.222,151.993 201.602,174.245 188.247,192.124 C179.984,203.187 173.457,211.926 172.125,221.559 C170.382,234.17 167.926,264.771 164.827,312.511 L142.452,315.779 C145.245,259.72 146.396,227.023 145.869,218.601 M222.278,404.874 C225.454,399.929 228.737,394.814 229.452,390.778 C230.788,383.242 220.285,366.561 215.708,359.741 C212.053,354.295 214.063,350.957 215.144,349.164 C215.397,348.744 215.655,348.325 215.912,347.908 C218.125,344.314 220.413,340.598 219.774,336.297 C219.75,336.134 217.296,320.005 212.317,318.719 C211.868,318.577 209.622,317.644 207.244,316.657 C191.883,310.28 176.769,304.303 168.44,302.806 C171.229,260.795 173.456,233.615 175.067,221.965 C176.294,213.09 182.619,204.622 190.627,193.9 C203.476,176.697 221.072,153.139 225.967,113.521 C230.251,78.846 219.957,36.867 202.021,15.873 C194.794,7.413 186.608,2.793 178.351,2.513 C163.471,2.003 147.181,14.085 133.604,35.646 C120.005,57.24 111.693,84.509 110.8,110.461 C109.507,147.992 121.57,170.273 131.263,188.176 C137.165,199.08 142.265,208.497 142.906,218.786 C143.367,226.179 142.507,252.787 140.349,297.942 C134.888,296.804 131.574,295.898 129.619,295.269 C126.207,283.947 122.927,273.075 119.874,262.959 C109.136,227.376 100.654,199.269 100.084,196.671 C93.513,166.702 97.175,155.65 101.813,141.656 C104.558,133.375 107.668,123.988 109.118,109.225 C111.733,82.568 100.711,66.146 92.663,54.154 C88.595,48.092 85.08,42.857 84.195,37.826 C82.118,26.032 78.409,11.861 72.529,11.331 C70.847,11.186 68.448,12.069 66.563,17.165 L65.843,19.12 C60.981,32.339 60.981,32.339 41.513,43.712 C37.568,46.017 32.657,48.885 26.806,52.392 C8.919,63.109 3.64,78.644 2.358,89.788 C0.278,107.893 7.417,128.845 19.72,140.74 C26.812,147.598 34.019,152.223 40.99,156.693 C55.726,166.144 69.644,175.072 78.653,203.976 C81.112,211.868 90.888,245.818 102.797,288.035 C101.625,287.725 100.759,287.61 99.964,287.51 C99.583,287.462 99.211,287.417 98.793,287.335 C88.738,285.352 65.624,292.558 65.392,292.631 C60.438,294.186 53.543,301.064 44.341,310.609 C40.183,314.922 35.884,319.382 33.856,320.673 C25.483,326.008 23.335,333.873 27.288,344.717 C29.211,349.994 32.14,355.367 34.724,360.108 C37.646,365.467 40.405,370.529 40.972,374.026 C41.915,379.842 45.468,397.935 49.294,404.562 C50.79,407.156 51.83,408.011 53.365,409.11 C54.347,409.812 55.56,410.683 57.753,413.146 C58.899,414.948 58.703,416.37 58.16,419.312 C57.216,424.44 55.923,431.463 64.084,444.05 C71.226,455.062 78.489,459.858 81.317,461.426 C82.408,464.041 85.679,469.954 94.704,476.77 C105.12,484.639 117.226,493.298 117.347,493.385 L117.981,493.839 L118.759,493.922 C119.386,493.988 123.534,494.428 129.595,494.993 C128.289,517.267 127.437,531.401 127.437,531.401 L127.417,531.719 L127.529,532.016 C129.843,538.142 137.36,540.79 143.845,540.79 C144.267,540.79 144.685,540.778 145.097,540.757 C150.49,540.465 154.335,538.374 155.13,535.301 L155.175,535.004 C155.175,535.004 155.922,520.284 157.147,497.17 C158.772,497.27 160.395,497.364 162.007,497.45 C164.464,505.703 166.544,513.114 168.234,519.139 C172.39,533.965 172.878,535.379 174.028,535.949 C176.056,536.955 179.39,537.7 182.872,537.7 C185.964,537.7 189.173,537.112 191.685,535.599 C194.668,533.8 196.293,530.937 196.384,527.32 C196.44,525.124 193.196,511.378 189.396,497.565 C190.933,497.399 192.239,497.182 193.244,496.899 C203.609,493.991 205.731,489.566 206.439,485.621 C206.471,485.448 206.493,485.29 206.528,485.151 C207.508,483.214 206.653,480.73 205.378,477.025 C204.9,475.641 204.123,473.381 204.038,472.491 C204.265,471.896 204.515,471.07 204.916,469.739 C205.591,467.494 207.646,460.659 209.003,459.645 C212.415,458 220.127,451.523 220.995,450.79 L221.818,450.095 L222.004,449.032 C222.371,446.931 224.037,436.197 220.763,431.319 C218.51,427.962 216.671,416.752 217.735,412.866 C218.172,411.27 220.354,407.873 222.278,404.874" fill="#0B0B09"/>
  </g>
</svg>
